<?xml version="1.0" encoding="utf-8"?>
<!-- Generator: Adobe Illustrator 20.1.0, SVG Export Plug-In . SVG Version: 6.00 Build 0)  -->
<svg version="1.1" id="diem_ban" xmlns="http://www.w3.org/2000/svg" xmlns:xlink="http://www.w3.org/1999/xlink" x="0px" y="0px"
	 viewBox="0 0 300 163.3" style="enable-background:new 0 0 300 163.3;" xml:space="preserve">
<style type="text/css">
	.st0{fill:#FFFFFF;}
	.st1{fill:#C0C0C0;}
	.st2{enable-background:new    ;}
	.st3{fill:#C4201F;}
	.st4{fill:#8B3C11;}
	.st5{fill:#D74D04;}
</style>
<g>
	<g id="Rounded_Rectangle_6">
		<path class="st0" d="M9,162.5c-4.5,0-8.2-3.7-8.2-8.2V9.1c0-4.5,3.7-8.2,8.2-8.2H291c4.5,0,8.2,3.7,8.2,8.2v145.3
			c0,4.5-3.7,8.2-8.2,8.2H9z"/>
		<path class="st1" d="M291,1.7c4.1,0,7.4,3.3,7.4,7.4v145.3c0,4.1-3.3,7.4-7.4,7.4H9c-4.1,0-7.4-3.3-7.4-7.4V9.1
			C1.6,5,4.9,1.7,9,1.7H291 M291,0.1H9c-4.9,0-9,4-9,9v145.3c0,4.9,4,9,9,9H291c4.9,0,9-4,9-9V9.1C300,4.1,296,0.1,291,0.1L291,0.1z
			"/>
	</g>
	<g class="st2">
		<path class="st3" d="M35.9,42c-0.8,1-1.9,1.7-3.4,2.2C31,44.8,29.4,45,27.7,45c-1.9,0-3.5-0.4-4.9-1.2c-1.4-0.8-2.5-2-3.2-3.5
			c-0.8-1.5-1.2-3.3-1.2-5.4v-1.5c0-2.1,0.4-4,1.1-5.6c0.7-1.6,1.8-2.8,3.1-3.6c1.4-0.8,3-1.2,4.8-1.2c2.5,0,4.5,0.6,6,1.8
			s2.3,3,2.5,5.3h-4.3c-0.2-1.2-0.6-2.1-1.3-2.7c-0.7-0.6-1.6-0.9-2.8-0.9c-1.5,0-2.6,0.6-3.4,1.7c-0.8,1.1-1.2,2.8-1.2,5v1.4
			c0,2.2,0.4,3.9,1.3,5.1c0.9,1.1,2.1,1.7,3.8,1.7c1.7,0,2.8-0.4,3.5-1.1v-3.7h-4v-3.3h8.4V42z"/>
		<path class="st3" d="M39.1,24.7c0-0.6,0.2-1.2,0.6-1.6c0.4-0.4,1-0.6,1.7-0.6c0.7,0,1.3,0.2,1.7,0.6c0.4,0.4,0.6,0.9,0.6,1.6
			c0,0.6-0.2,1.2-0.7,1.6c-0.4,0.4-1,0.6-1.7,0.6s-1.3-0.2-1.7-0.6C39.4,25.9,39.1,25.4,39.1,24.7z M43.7,44.7h-4.3V28.8h4.3V44.7z"
			/>
		<path class="st3" d="M56.4,44.7c-0.2-0.4-0.3-0.9-0.4-1.4c-1,1.1-2.4,1.7-4,1.7c-1.6,0-2.9-0.5-3.9-1.4c-1-0.9-1.5-2-1.5-3.4
			c0-1.7,0.6-3,1.9-3.9c1.3-0.9,3.1-1.4,5.4-1.4h2v-0.9c0-0.7-0.2-1.3-0.6-1.8c-0.4-0.4-1-0.7-1.8-0.7c-0.7,0-1.3,0.2-1.7,0.5
			c-0.4,0.3-0.6,0.8-0.6,1.4h-4.3c0-0.9,0.3-1.8,0.9-2.6c0.6-0.8,1.4-1.4,2.4-1.8c1-0.4,2.2-0.7,3.5-0.7c2,0,3.5,0.5,4.7,1.5
			c1.2,1,1.7,2.4,1.7,4.2v6.9c0,1.5,0.2,2.7,0.6,3.4v0.3H56.4z M52.9,41.8c0.6,0,1.2-0.1,1.7-0.4c0.5-0.3,0.9-0.7,1.2-1.1v-2.7h-1.6
			c-2.1,0-3.3,0.7-3.4,2.2l0,0.2c0,0.5,0.2,1,0.6,1.3C51.7,41.6,52.2,41.8,52.9,41.8z"/>
		<path class="st3" d="M62.7,36.6c0-1.6,0.3-3,0.9-4.2c0.6-1.2,1.5-2.2,2.6-2.9c1.1-0.7,2.5-1,4-1c2.2,0,3.9,0.7,5.3,2
			c1.4,1.3,2.1,3.1,2.3,5.4l0,1.1c0,2.4-0.7,4.4-2,5.9S72.5,45,70.2,45c-2.3,0-4.1-0.7-5.5-2.2c-1.4-1.5-2.1-3.5-2.1-6V36.6z
			 M66.9,36.9c0,1.5,0.3,2.7,0.9,3.5c0.6,0.8,1.4,1.2,2.4,1.2c1,0,1.8-0.4,2.4-1.2c0.6-0.8,0.9-2.1,0.9-3.8c0-1.5-0.3-2.6-0.9-3.4
			c-0.6-0.8-1.4-1.2-2.4-1.2c-1,0-1.8,0.4-2.4,1.2C67.2,34,66.9,35.2,66.9,36.9z"/>
		<path class="st3" d="M92.1,30.6c1.1-1.4,2.5-2,4.3-2c3.5,0,5.2,2,5.3,6v10.2h-4.3V34.7c0-0.9-0.2-1.6-0.6-2c-0.4-0.4-1-0.7-2-0.7
			c-1.2,0-2.2,0.5-2.7,1.4v11.3h-4.3V22.1h4.3V30.6z"/>
		<path class="st3" d="M114,44.7c-0.2-0.4-0.3-0.9-0.4-1.4c-1,1.1-2.4,1.7-4,1.7c-1.6,0-2.9-0.5-3.9-1.4c-1-0.9-1.5-2-1.5-3.4
			c0-1.7,0.6-3,1.9-3.9c1.3-0.9,3.1-1.4,5.4-1.4h2v-0.9c0-0.7-0.2-1.3-0.6-1.8c-0.4-0.4-1-0.7-1.8-0.7c-0.7,0-1.3,0.2-1.7,0.5
			c-0.4,0.3-0.6,0.8-0.6,1.4h-4.3c0-0.9,0.3-1.8,0.9-2.6c0.6-0.8,1.4-1.4,2.4-1.8c1-0.4,2.2-0.7,3.5-0.7c2,0,3.5,0.5,4.7,1.5
			c1.2,1,1.7,2.4,1.7,4.2v6.9c0,1.5,0.2,2.7,0.6,3.4v0.3H114z M113.4,26.7h-3.5l-4.1-4.6h4.6L113.4,26.7z M110.5,41.8
			c0.6,0,1.2-0.1,1.7-0.4c0.5-0.3,0.9-0.7,1.2-1.1v-2.7h-1.6c-2.1,0-3.3,0.7-3.4,2.2l0,0.2c0,0.5,0.2,1,0.6,1.3
			C109.3,41.6,109.9,41.8,110.5,41.8z"/>
		<path class="st3" d="M124.9,28.8l0.1,1.8c1.1-1.4,2.7-2.1,4.6-2.1c1.7,0,2.9,0.5,3.8,1.5c0.8,1,1.2,2.5,1.3,4.4v10.3h-4.3V34.6
			c0-0.9-0.2-1.6-0.6-2c-0.4-0.4-1-0.6-2-0.6c-1.2,0-2.1,0.5-2.7,1.5v11.2h-4.3V28.8H124.9z"/>
		<path class="st3" d="M137.2,36.7c0-2.4,0.6-4.4,1.7-5.9c1.2-1.5,2.7-2.2,4.7-2.2c1.7,0,3.1,0.6,4.1,1.8l0.2-1.5h3.9v15.4
			c0,1.4-0.3,2.6-0.9,3.6c-0.6,1-1.5,1.8-2.7,2.4c-1.1,0.5-2.5,0.8-4,0.8c-1.2,0-2.3-0.2-3.4-0.7c-1.1-0.5-1.9-1.1-2.5-1.8l1.9-2.6
			c1.1,1.2,2.3,1.8,3.9,1.8c1.1,0,2-0.3,2.6-0.9c0.6-0.6,0.9-1.5,0.9-2.6v-0.9c-1,1.1-2.3,1.7-3.9,1.7c-1.9,0-3.5-0.7-4.6-2.2
			c-1.2-1.5-1.8-3.5-1.8-5.9V36.7z M141.5,37c0,1.4,0.3,2.6,0.9,3.4c0.6,0.8,1.4,1.2,2.4,1.2c1.3,0,2.2-0.5,2.8-1.5v-6.7
			c-0.6-1-1.5-1.5-2.8-1.5c-1,0-1.8,0.4-2.4,1.3C141.8,34.1,141.5,35.3,141.5,37z"/>
		<path class="st3" d="M170.9,37.3h-8.3v-3.4h8.3V37.3z"/>
		<path class="st3" d="M186.9,24.9v3.9h2.7v3.1h-2.7v7.9c0,0.6,0.1,1,0.3,1.3c0.2,0.3,0.7,0.4,1.3,0.4c0.5,0,0.9,0,1.3-0.1v3.2
			c-0.8,0.3-1.7,0.4-2.6,0.4c-3,0-4.5-1.5-4.6-4.5v-8.6h-2.3v-3.1h2.3v-3.9H186.9z"/>
		<path class="st3" d="M196.1,30.6c1.1-1.4,2.5-2,4.3-2c3.5,0,5.2,2,5.3,6v10.2h-4.3V34.7c0-0.9-0.2-1.6-0.6-2c-0.4-0.4-1-0.7-2-0.7
			c-1.2,0-2.2,0.5-2.7,1.4v11.3h-4.3V22.1h4.3V30.6z"/>
		<path class="st3" d="M218.4,43.1c-1.1,1.3-2.5,1.9-4.4,1.9c-1.7,0-3-0.5-3.9-1.5c-0.9-1-1.4-2.4-1.4-4.3V28.8h4.3v10.3
			c0,1.7,0.8,2.5,2.3,2.5c1.4,0,2.4-0.5,3-1.5V28.8h4.3v15.9h-4L218.4,43.1z"/>
		<path class="st3" d="M238.4,24.9v3.9h2.7v3.1h-2.7v7.9c0,0.6,0.1,1,0.3,1.3c0.2,0.3,0.7,0.4,1.3,0.4c0.5,0,0.9,0,1.3-0.1v3.2
			c-0.8,0.3-1.7,0.4-2.6,0.4c-3,0-4.5-1.5-4.6-4.5v-8.6h-2.3v-3.1h2.3v-3.9H238.4z"/>
		<path class="st3" d="M243.4,24.7c0-0.6,0.2-1.2,0.6-1.6c0.4-0.4,1-0.6,1.7-0.6c0.7,0,1.3,0.2,1.7,0.6c0.4,0.4,0.6,0.9,0.6,1.6
			c0,0.6-0.2,1.2-0.7,1.6c-0.4,0.4-1,0.6-1.7,0.6s-1.3-0.2-1.7-0.6C243.6,25.9,243.4,25.4,243.4,24.7z M247.9,44.7h-4.3V28.8h4.3
			V44.7z"/>
		<path class="st3" d="M253.5,24.7H251l-3.3-4h3.4L253.5,24.7z M258.8,45c-2.3,0-4.2-0.7-5.7-2.1c-1.5-1.4-2.2-3.3-2.2-5.7v-0.4
			c0-1.6,0.3-3,0.9-4.3c0.6-1.3,1.5-2.2,2.6-2.9c1.1-0.7,2.4-1,3.9-1c2.2,0,3.9,0.7,5.1,2.1c1.3,1.4,1.9,3.3,1.9,5.8v1.7h-10.1
			c0.1,1,0.6,1.9,1.2,2.5c0.7,0.6,1.6,0.9,2.6,0.9c1.6,0,2.9-0.6,3.8-1.8l2.1,2.3c-0.6,0.9-1.5,1.6-2.6,2.1
			C261.3,44.8,260.1,45,258.8,45z M263.2,26.7l-3.2,0l-2.2-1.9l-2.2,1.9l-3.2,0l4.2-3.4h2.4L263.2,26.7z M258.3,32
			c-0.8,0-1.5,0.3-2.1,0.9c-0.5,0.6-0.9,1.4-1,2.5h5.9v-0.3c0-0.9-0.3-1.7-0.8-2.2C259.9,32.2,259.2,32,258.3,32z"/>
		<path class="st3" d="M271.7,28.8l0.1,1.8c1.1-1.4,2.7-2.1,4.6-2.1c1.7,0,2.9,0.5,3.8,1.5c0.8,1,1.2,2.5,1.3,4.4v10.3h-4.3V34.6
			c0-0.9-0.2-1.6-0.6-2c-0.4-0.4-1-0.6-2-0.6c-1.2,0-2.1,0.5-2.7,1.5v11.2h-4.3V28.8H271.7z"/>
	</g>
	<g class="st2">
		<path class="st3" d="M110.8,61V65h2.7v3.1h-2.7V76c0,0.6,0.1,1,0.3,1.3c0.2,0.3,0.7,0.4,1.3,0.4c0.5,0,0.9,0,1.3-0.1v3.2
			c-0.8,0.3-1.7,0.4-2.6,0.4c-3,0-4.5-1.5-4.6-4.5v-8.6h-2.3V65h2.3V61H110.8z"/>
		<path class="st3" d="M125.2,80.9c-0.2-0.4-0.3-0.9-0.4-1.4c-1,1.1-2.4,1.7-4,1.7c-1.6,0-2.9-0.5-3.9-1.4c-1-0.9-1.5-2-1.5-3.4
			c0-1.7,0.6-3,1.9-3.9c1.3-0.9,3.1-1.4,5.4-1.4h2v-0.9c0-0.7-0.2-1.3-0.6-1.8c-0.4-0.4-1-0.7-1.8-0.7c-0.7,0-1.3,0.2-1.7,0.5
			c-0.4,0.3-0.6,0.8-0.6,1.4h-4.3c0-0.9,0.3-1.8,0.9-2.6c0.6-0.8,1.4-1.4,2.4-1.8c1-0.4,2.2-0.7,3.5-0.7c2,0,3.5,0.5,4.7,1.5
			c1.2,1,1.7,2.4,1.7,4.2v6.9c0,1.5,0.2,2.7,0.6,3.4v0.3H125.2z M118.9,84.1c0-0.6,0.2-1.1,0.7-1.5c0.4-0.4,1-0.6,1.7-0.6
			c0.7,0,1.3,0.2,1.7,0.6c0.4,0.4,0.7,0.9,0.7,1.5c0,0.6-0.2,1.1-0.7,1.5c-0.4,0.4-1,0.6-1.7,0.6c-0.7,0-1.3-0.2-1.7-0.6
			C119.1,85.1,118.9,84.7,118.9,84.1z M121.6,77.9c0.6,0,1.2-0.1,1.7-0.4c0.5-0.3,0.9-0.7,1.2-1.1v-2.7H123c-2.1,0-3.3,0.7-3.4,2.2
			l0,0.2c0,0.5,0.2,1,0.6,1.3C120.5,77.7,121,77.9,121.6,77.9z"/>
		<path class="st3" d="M132.1,60.8c0-0.6,0.2-1.2,0.6-1.6c0.4-0.4,1-0.6,1.7-0.6c0.7,0,1.3,0.2,1.7,0.6c0.4,0.4,0.6,0.9,0.6,1.6
			c0,0.6-0.2,1.2-0.7,1.6c-0.4,0.4-1,0.6-1.7,0.6c-0.7,0-1.3-0.2-1.7-0.6C132.3,62,132.1,61.5,132.1,60.8z M136.6,80.9h-4.3V65h4.3
			V80.9z"/>
		<path class="st3" d="M151.5,65l0.1,1.8c1.1-1.4,2.7-2.1,4.6-2.1c1.7,0,2.9,0.5,3.8,1.5c0.8,1,1.2,2.5,1.3,4.4v10.3H157V70.7
			c0-0.9-0.2-1.6-0.6-2c-0.4-0.4-1-0.6-2-0.6c-1.2,0-2.1,0.5-2.7,1.5v11.2h-4.3V65H151.5z"/>
		<path class="st3" d="M168.6,66.7c1.1-1.4,2.5-2,4.3-2c3.5,0,5.2,2,5.3,6v10.2h-4.3V70.8c0-0.9-0.2-1.6-0.6-2c-0.4-0.4-1-0.7-2-0.7
			c-1.2,0-2.2,0.5-2.7,1.4v11.3h-4.3V58.3h4.3V66.7z"/>
		<path class="st3" d="M190.6,80.9c-0.2-0.4-0.3-0.9-0.4-1.4c-1,1.1-2.4,1.7-4,1.7c-1.6,0-2.9-0.5-3.9-1.4c-1-0.9-1.5-2-1.5-3.4
			c0-1.7,0.6-3,1.9-3.9c1.3-0.9,3.1-1.4,5.4-1.4h2v-0.9c0-0.7-0.2-1.3-0.6-1.8c-0.4-0.4-1-0.7-1.8-0.7c-0.7,0-1.3,0.2-1.7,0.5
			c-0.4,0.3-0.6,0.8-0.6,1.4h-4.3c0-0.9,0.3-1.8,0.9-2.6c0.6-0.8,1.4-1.4,2.4-1.8c1-0.4,2.2-0.7,3.5-0.7c2,0,3.5,0.5,4.7,1.5
			c1.2,1,1.7,2.4,1.7,4.2v6.9c0,1.5,0.2,2.7,0.6,3.4v0.3H190.6z M190,62.8h-3.5l-4.1-4.6h4.6L190,62.8z M187.1,77.9
			c0.6,0,1.2-0.1,1.7-0.4c0.5-0.3,0.9-0.7,1.2-1.1v-2.7h-1.6c-2.1,0-3.3,0.7-3.4,2.2l0,0.2c0,0.5,0.2,1,0.6,1.3
			C185.9,77.7,186.4,77.9,187.1,77.9z"/>
	</g>
	<g>
		<path id="Rounded_Rectangle_7_copy" class="st4" d="M70,106.2h161.1c8.6,0,15.6,7,15.6,15.6v11.5c0,8.6-7,15.6-15.6,15.6
			c0,0,0,0,0,0H70c-8.6,0-15.6-7-15.6-15.6c0,0,0,0,0,0v-11.5C54.4,113.2,61.4,106.2,70,106.2C70,106.2,70,106.2,70,106.2z"/>
		<path id="Rounded_Rectangle_7" class="st5" d="M70,102.2h161.1c8.6,0,15.6,7,15.6,15.6v11.5c0,8.6-7,15.6-15.6,15.6l0,0H70
			c-8.6,0-15.6-7-15.6-15.6v-11.5C54.4,109.2,61.4,102.2,70,102.2C70,102.2,70,102.2,70,102.2z"/>
		<g class="st2">
			<path class="st0" d="M73.8,131.1v-14.8h4.8c0.8,0,1.4,0.1,2,0.2c0.6,0.2,1.1,0.4,1.5,0.7c0.4,0.3,0.7,0.7,1,1.2
				c0.2,0.5,0.3,1.1,0.3,1.8c0,0.7-0.2,1.3-0.6,1.8s-0.9,0.9-1.6,1.2c0.4,0.1,0.8,0.3,1.1,0.5c0.3,0.2,0.6,0.5,0.8,0.8
				c0.2,0.3,0.4,0.6,0.5,1c0.1,0.4,0.2,0.8,0.2,1.2c0,0.7-0.1,1.3-0.3,1.8c-0.2,0.5-0.6,1-1,1.3c-0.4,0.4-0.9,0.6-1.5,0.8
				c-0.6,0.2-1.3,0.3-2,0.3H73.8z M75.8,122.6h2.9c0.4,0,0.8-0.1,1.1-0.2c0.3-0.1,0.6-0.3,0.9-0.5c0.2-0.2,0.4-0.5,0.6-0.7
				c0.1-0.3,0.2-0.6,0.2-1c0-0.8-0.2-1.4-0.7-1.8c-0.5-0.4-1.2-0.6-2.2-0.6h-2.9V122.6z M75.8,124.1v5.3H79c0.5,0,0.9-0.1,1.2-0.2
				c0.4-0.1,0.7-0.3,0.9-0.5c0.2-0.2,0.4-0.5,0.6-0.8c0.1-0.3,0.2-0.7,0.2-1.1c0-0.4-0.1-0.8-0.2-1.1c-0.1-0.3-0.3-0.6-0.5-0.8
				c-0.2-0.2-0.5-0.4-0.9-0.5c-0.4-0.1-0.8-0.2-1.3-0.2H75.8z"/>
			<path class="st0" d="M93.2,131.1c-0.1-0.1-0.1-0.3-0.2-0.5c0-0.2-0.1-0.4-0.1-0.6c-0.2,0.2-0.4,0.4-0.6,0.5
				c-0.2,0.2-0.5,0.3-0.7,0.4c-0.3,0.1-0.5,0.2-0.8,0.3c-0.3,0.1-0.6,0.1-1,0.1c-0.6,0-1.1-0.1-1.5-0.3c-0.5-0.2-0.8-0.4-1.2-0.7
				s-0.6-0.6-0.7-1c-0.2-0.4-0.3-0.8-0.3-1.3c0-0.6,0.1-1.1,0.3-1.6c0.2-0.5,0.6-0.8,1-1.1c0.4-0.3,0.9-0.5,1.6-0.7
				c0.6-0.2,1.3-0.2,2-0.2h1.9v-0.9c0-0.7-0.2-1.2-0.6-1.6s-1-0.6-1.7-0.6c-0.4,0-0.7,0-1,0.1c-0.3,0.1-0.5,0.2-0.7,0.4
				c-0.2,0.2-0.4,0.3-0.5,0.6c-0.1,0.2-0.2,0.4-0.2,0.7h-1.9c0-0.4,0.1-0.8,0.3-1.2c0.2-0.4,0.5-0.7,0.9-1c0.4-0.3,0.8-0.6,1.4-0.8
				c0.5-0.2,1.1-0.3,1.8-0.3c0.6,0,1.1,0.1,1.6,0.2c0.5,0.2,0.9,0.4,1.3,0.7c0.4,0.3,0.6,0.7,0.8,1.2c0.2,0.5,0.3,1,0.3,1.6v5.1
				c0,0.4,0,0.8,0.1,1.2c0.1,0.4,0.2,0.8,0.3,1.1v0.2H93.2z M90.1,116.1h1.5l2.9,2.7h-2l-1.7-1.6l-1.7,1.6h-2L90.1,116.1z
				 M90.1,129.6c0.3,0,0.7,0,1-0.1c0.3-0.1,0.6-0.2,0.8-0.4c0.2-0.2,0.5-0.3,0.6-0.5s0.3-0.4,0.4-0.6v-2.3h-1.6
				c-1.1,0-1.9,0.2-2.5,0.5c-0.6,0.3-0.9,0.8-0.9,1.5c0,0.3,0,0.5,0.1,0.7c0.1,0.2,0.2,0.4,0.4,0.6c0.2,0.2,0.4,0.3,0.7,0.4
				C89.4,129.6,89.7,129.6,90.1,129.6z M95.3,114.4h2l-2,2.6h-1.4L95.3,114.4z"/>
			<path class="st0" d="M99.5,120.1l0.1,1.2c0.4-0.4,0.8-0.8,1.4-1c0.5-0.3,1.2-0.4,1.9-0.4c0.7,0,1.3,0.1,1.9,0.4
				c0.5,0.3,1,0.7,1.2,1.3c0.4-0.5,0.8-1,1.4-1.3c0.6-0.3,1.3-0.5,2.1-0.5c0.6,0,1.1,0.1,1.6,0.2c0.5,0.2,0.8,0.4,1.1,0.7
				c0.3,0.3,0.6,0.7,0.7,1.2c0.2,0.5,0.2,1.1,0.2,1.8v7.2h-1.9v-7.2c0-0.5-0.1-0.8-0.2-1.1c-0.1-0.3-0.3-0.5-0.5-0.7
				c-0.2-0.2-0.4-0.3-0.7-0.4c-0.3-0.1-0.6-0.1-1-0.1c-0.4,0-0.7,0.1-1,0.2s-0.6,0.3-0.8,0.5c-0.2,0.2-0.4,0.5-0.5,0.7
				c-0.1,0.3-0.2,0.6-0.2,0.9v7.3h-1.9v-7.2c0-0.4-0.1-0.8-0.2-1.1c-0.1-0.3-0.3-0.5-0.5-0.7c-0.2-0.2-0.4-0.3-0.7-0.4
				c-0.3-0.1-0.6-0.1-1-0.1c-0.7,0-1.2,0.1-1.6,0.4c-0.4,0.3-0.7,0.7-0.9,1.1v8h-1.9v-11H99.5z"/>
			<path class="st0" d="M131.7,118.5h-1.9v12.5h-1.7l-0.1-1.2c-0.4,0.4-0.8,0.8-1.3,1c-0.5,0.2-1.1,0.4-1.8,0.4
				c-0.6,0-1.2-0.1-1.8-0.4c-0.5-0.3-1-0.7-1.4-1.2c-0.4-0.5-0.7-1.1-0.9-1.8c-0.2-0.7-0.3-1.4-0.3-2.2v-0.2c0-0.8,0.1-1.6,0.3-2.3
				c0.2-0.7,0.5-1.3,0.9-1.8c0.4-0.5,0.8-0.9,1.4-1.1c0.5-0.3,1.1-0.4,1.8-0.4c0.7,0,1.3,0.1,1.8,0.3c0.5,0.2,0.9,0.6,1.3,1v-2.7
				h-2.7V117h2.7v-1.5h1.9v1.5h1.9V118.5z M122.4,125.7c0,0.5,0.1,1.1,0.2,1.5c0.1,0.5,0.3,0.9,0.5,1.3c0.2,0.4,0.5,0.6,0.9,0.9
				c0.4,0.2,0.8,0.3,1.3,0.3c0.3,0,0.6,0,0.9-0.1c0.3-0.1,0.5-0.2,0.7-0.3c0.2-0.1,0.4-0.3,0.6-0.5c0.2-0.2,0.3-0.4,0.4-0.7V123
				c-0.1-0.2-0.3-0.4-0.4-0.6c-0.2-0.2-0.3-0.4-0.6-0.5c-0.2-0.1-0.5-0.2-0.7-0.3c-0.3-0.1-0.6-0.1-0.9-0.1c-0.5,0-1,0.1-1.3,0.3
				c-0.4,0.2-0.7,0.5-0.9,0.9c-0.2,0.4-0.4,0.8-0.5,1.3c-0.1,0.5-0.2,1-0.2,1.5V125.7z"/>
			<path class="st0" d="M137.5,131.3c-0.8,0-1.5-0.1-2.1-0.4c-0.6-0.3-1.1-0.6-1.6-1.1c-0.4-0.5-0.8-1-1-1.7
				c-0.2-0.7-0.4-1.4-0.4-2.1v-0.4c0-0.9,0.1-1.7,0.4-2.4c0.3-0.7,0.6-1.3,1.1-1.8c0.4-0.5,1-0.8,1.5-1.1c0.6-0.3,1.2-0.4,1.8-0.4
				c0.8,0,1.5,0.1,2,0.4c0.6,0.3,1,0.7,1.4,1.1c0.4,0.5,0.6,1.1,0.8,1.7c0.2,0.7,0.3,1.4,0.3,2.1v0.8h-7.4c0,0.5,0.1,1,0.2,1.4
				c0.2,0.4,0.4,0.8,0.6,1.1c0.3,0.3,0.6,0.6,1,0.8c0.4,0.2,0.8,0.3,1.3,0.3c0.7,0,1.2-0.1,1.7-0.4c0.5-0.3,0.9-0.6,1.2-1.1l1.1,0.9
				c-0.2,0.3-0.4,0.5-0.6,0.8c-0.2,0.3-0.5,0.5-0.9,0.7c-0.3,0.2-0.7,0.4-1.1,0.5C138.6,131.2,138.1,131.3,137.5,131.3z M141,118.9
				h-1.7l-2-1.9l-2,1.9h-1.7l2.8-2.7h1.9L141,118.9z M137.3,121.4c-0.4,0-0.7,0.1-1,0.2c-0.3,0.1-0.6,0.3-0.8,0.6
				c-0.2,0.3-0.5,0.6-0.6,1s-0.3,0.8-0.3,1.4h5.5v-0.1c0-0.4-0.1-0.7-0.2-1.1c-0.1-0.4-0.2-0.7-0.5-1c-0.2-0.3-0.5-0.5-0.8-0.7
				C138.2,121.5,137.8,121.4,137.3,121.4z M140.1,117.5l0-1.3c0.4,0,0.8-0.1,1-0.2c0.2-0.1,0.3-0.2,0.3-0.5c0-0.1,0-0.2-0.1-0.3
				c-0.1-0.1-0.2-0.2-0.3-0.2c-0.1-0.1-0.3-0.1-0.5-0.1c-0.2,0-0.4,0-0.6,0l0.1-0.9c0.9,0,1.5,0.2,2,0.4c0.5,0.3,0.7,0.7,0.7,1.2
				c0,0.2,0,0.4-0.1,0.6c-0.1,0.2-0.2,0.3-0.3,0.4c-0.1,0.1-0.3,0.2-0.4,0.2c-0.2,0.1-0.3,0.1-0.5,0.1l0,0.6H140.1z"/>
			<path class="st0" d="M159.8,118.5h-1.9v12.5h-1.7l-0.1-1.2c-0.4,0.4-0.8,0.8-1.3,1c-0.5,0.2-1.1,0.4-1.8,0.4
				c-0.6,0-1.2-0.1-1.8-0.4c-0.5-0.3-1-0.7-1.4-1.2c-0.4-0.5-0.7-1.1-0.9-1.8c-0.2-0.7-0.3-1.4-0.3-2.2v-0.2c0-0.8,0.1-1.6,0.3-2.3
				c0.2-0.7,0.5-1.3,0.9-1.8c0.4-0.5,0.8-0.9,1.4-1.1c0.5-0.3,1.1-0.4,1.8-0.4c0.7,0,1.3,0.1,1.7,0.3c0.5,0.2,0.9,0.6,1.3,1v-2.7
				h-2.7V117h2.7v-1.5h1.9v1.5h1.9V118.5z M150.5,125.7c0,0.5,0.1,1.1,0.2,1.5c0.1,0.5,0.3,0.9,0.5,1.3c0.2,0.4,0.5,0.6,0.9,0.9
				c0.4,0.2,0.8,0.3,1.3,0.3c0.3,0,0.6,0,0.9-0.1c0.3-0.1,0.5-0.2,0.7-0.3c0.2-0.1,0.4-0.3,0.6-0.5c0.2-0.2,0.3-0.4,0.4-0.7V123
				c-0.1-0.2-0.3-0.4-0.4-0.6c-0.2-0.2-0.3-0.4-0.6-0.5c-0.2-0.1-0.5-0.2-0.7-0.3c-0.3-0.1-0.6-0.1-0.9-0.1c-0.5,0-1,0.1-1.3,0.3
				c-0.4,0.2-0.7,0.5-0.9,0.9c-0.2,0.4-0.4,0.8-0.5,1.3c-0.1,0.5-0.2,1-0.2,1.5V125.7z"/>
			<path class="st0" d="M167.8,131.1c-0.1-0.1-0.1-0.3-0.2-0.5c0-0.2-0.1-0.4-0.1-0.6c-0.2,0.2-0.4,0.4-0.6,0.5
				c-0.2,0.2-0.5,0.3-0.7,0.4c-0.3,0.1-0.5,0.2-0.8,0.3c-0.3,0.1-0.6,0.1-1,0.1c-0.6,0-1.1-0.1-1.5-0.3c-0.5-0.2-0.8-0.4-1.2-0.7
				c-0.3-0.3-0.6-0.6-0.7-1c-0.2-0.4-0.3-0.8-0.3-1.3c0-0.6,0.1-1.1,0.3-1.6c0.2-0.5,0.6-0.8,1-1.1c0.4-0.3,0.9-0.5,1.6-0.7
				c0.6-0.2,1.3-0.2,2-0.2h1.9v-0.9c0-0.7-0.2-1.2-0.6-1.6c-0.4-0.4-1-0.6-1.7-0.6c-0.4,0-0.7,0-1,0.1c-0.3,0.1-0.5,0.2-0.7,0.4
				c-0.2,0.2-0.4,0.3-0.5,0.6c-0.1,0.2-0.2,0.4-0.2,0.7H161c0-0.4,0.1-0.8,0.3-1.2c0.2-0.4,0.5-0.7,0.9-1c0.4-0.3,0.8-0.6,1.4-0.8
				c0.5-0.2,1.1-0.3,1.8-0.3c0.6,0,1.1,0.1,1.6,0.2c0.5,0.2,0.9,0.4,1.3,0.7c0.4,0.3,0.6,0.7,0.8,1.2c0.2,0.5,0.3,1,0.3,1.6v5.1
				c0,0.4,0,0.8,0.1,1.2c0.1,0.4,0.2,0.8,0.3,1.1v0.2H167.8z M168.6,115.9c0,0.4-0.1,0.8-0.2,1.1c-0.1,0.3-0.3,0.6-0.6,0.9
				c-0.3,0.2-0.6,0.4-1,0.6c-0.4,0.1-0.8,0.2-1.3,0.2s-0.9-0.1-1.3-0.2c-0.4-0.1-0.7-0.3-1-0.6c-0.3-0.2-0.5-0.5-0.6-0.9
				c-0.1-0.3-0.2-0.7-0.2-1.1h1.5c0,0.2,0,0.4,0.1,0.6c0.1,0.2,0.1,0.3,0.3,0.5c0.1,0.1,0.3,0.2,0.5,0.3s0.4,0.1,0.7,0.1
				c0.3,0,0.5,0,0.7-0.1s0.3-0.2,0.5-0.3s0.2-0.3,0.3-0.5c0.1-0.2,0.1-0.4,0.1-0.6H168.6z M164.7,129.6c0.3,0,0.7,0,1-0.1
				c0.3-0.1,0.6-0.2,0.8-0.4c0.2-0.2,0.5-0.3,0.6-0.5c0.2-0.2,0.3-0.4,0.4-0.6v-2.3H166c-1.1,0-1.9,0.2-2.5,0.5
				c-0.6,0.3-0.9,0.8-0.9,1.5c0,0.3,0,0.5,0.1,0.7s0.2,0.4,0.4,0.6s0.4,0.3,0.7,0.4C164.1,129.6,164.4,129.6,164.7,129.6z
				 M163.6,133.6c0-0.3,0.1-0.6,0.3-0.8c0.2-0.2,0.5-0.3,0.8-0.3c0.4,0,0.6,0.1,0.8,0.3c0.2,0.2,0.3,0.5,0.3,0.8
				c0,0.3-0.1,0.6-0.3,0.8c-0.2,0.2-0.5,0.3-0.8,0.3c-0.4,0-0.6-0.1-0.8-0.3C163.7,134.1,163.6,133.9,163.6,133.6z"/>
			<path class="st0" d="M174.9,117.4v2.7h2v1.5h-2v6.8c0,0.3,0,0.5,0.1,0.7c0.1,0.2,0.2,0.3,0.3,0.4c0.1,0.1,0.2,0.2,0.4,0.2
				s0.3,0,0.5,0s0.3,0,0.5,0c0.2,0,0.3-0.1,0.4-0.1v1.5c-0.1,0-0.3,0.1-0.6,0.1c-0.2,0-0.5,0.1-0.9,0.1c-0.3,0-0.7,0-1-0.1
				c-0.3-0.1-0.6-0.3-0.8-0.5c-0.2-0.2-0.4-0.5-0.5-0.9c-0.1-0.4-0.2-0.8-0.2-1.4v-6.8h-2v-1.5h2v-2.7H174.9z"/>
			<path class="st0" d="M186.1,121.4c0.4-0.5,0.9-0.9,1.4-1.1c0.5-0.3,1.2-0.4,1.8-0.4c0.5,0,1,0.1,1.4,0.2c0.4,0.1,0.8,0.4,1.1,0.7
				c0.3,0.3,0.5,0.7,0.7,1.2c0.2,0.5,0.2,1.1,0.2,1.8v7.2H191v-7.2c0-0.4,0-0.8-0.1-1.1c-0.1-0.3-0.2-0.5-0.4-0.7
				c-0.2-0.2-0.4-0.3-0.7-0.4c-0.3-0.1-0.6-0.1-0.9-0.1c-0.6,0-1.1,0.2-1.6,0.5c-0.5,0.3-0.8,0.8-1.1,1.3v7.8h-1.9v-15.6h1.9V121.4z
				"/>
			<path class="st0" d="M202.4,131.1c-0.1-0.1-0.1-0.3-0.2-0.5c0-0.2-0.1-0.4-0.1-0.6c-0.2,0.2-0.4,0.4-0.6,0.5
				c-0.2,0.2-0.5,0.3-0.7,0.4c-0.3,0.1-0.5,0.2-0.8,0.3c-0.3,0.1-0.6,0.1-1,0.1c-0.6,0-1.1-0.1-1.5-0.3s-0.8-0.4-1.2-0.7
				c-0.3-0.3-0.6-0.6-0.7-1c-0.2-0.4-0.3-0.8-0.3-1.3c0-0.6,0.1-1.1,0.3-1.6c0.2-0.5,0.6-0.8,1-1.1c0.4-0.3,0.9-0.5,1.6-0.7
				c0.6-0.2,1.3-0.2,2-0.2h1.9v-0.9c0-0.7-0.2-1.2-0.6-1.6s-1-0.6-1.7-0.6c-0.4,0-0.7,0-1,0.1c-0.3,0.1-0.5,0.2-0.7,0.4
				c-0.2,0.2-0.4,0.3-0.5,0.6c-0.1,0.2-0.2,0.4-0.2,0.7h-1.9c0-0.4,0.1-0.8,0.3-1.2c0.2-0.4,0.5-0.7,0.9-1c0.4-0.3,0.8-0.6,1.4-0.8
				c0.5-0.2,1.1-0.3,1.8-0.3c0.6,0,1.1,0.1,1.6,0.2c0.5,0.2,0.9,0.4,1.3,0.7c0.4,0.3,0.6,0.7,0.8,1.2c0.2,0.5,0.3,1,0.3,1.6v5.1
				c0,0.4,0,0.8,0.1,1.2c0.1,0.4,0.2,0.8,0.3,1.1v0.2H202.4z M201.2,118.5h-1.6l-2.6-3h2.3L201.2,118.5z M199.3,129.6
				c0.3,0,0.7,0,1-0.1c0.3-0.1,0.6-0.2,0.8-0.4c0.2-0.2,0.5-0.3,0.6-0.5s0.3-0.4,0.4-0.6v-2.3h-1.6c-1.1,0-1.9,0.2-2.5,0.5
				c-0.6,0.3-0.9,0.8-0.9,1.5c0,0.3,0,0.5,0.1,0.7c0.1,0.2,0.2,0.4,0.4,0.6c0.2,0.2,0.4,0.3,0.7,0.4
				C198.7,129.6,199,129.6,199.3,129.6z"/>
			<path class="st0" d="M208.7,120.1l0.1,1.4c0.4-0.5,0.9-0.9,1.4-1.2c0.6-0.3,1.2-0.4,1.9-0.4c0.5,0,1,0.1,1.4,0.2
				c0.4,0.1,0.8,0.4,1.1,0.7c0.3,0.3,0.5,0.7,0.7,1.2c0.2,0.5,0.2,1.1,0.2,1.8v7.2h-1.9v-7.2c0-0.4,0-0.8-0.1-1.1
				c-0.1-0.3-0.2-0.5-0.4-0.7c-0.2-0.2-0.4-0.3-0.7-0.4c-0.3-0.1-0.6-0.1-0.9-0.1c-0.6,0-1.1,0.2-1.6,0.5c-0.5,0.3-0.8,0.8-1.1,1.3
				v7.8h-1.9v-11H208.7z"/>
			<path class="st0" d="M217.9,125.5c0-0.8,0.1-1.6,0.3-2.3c0.2-0.7,0.5-1.3,0.9-1.8c0.4-0.5,0.8-0.9,1.4-1.1
				c0.5-0.3,1.1-0.4,1.8-0.4c0.7,0,1.3,0.1,1.8,0.4c0.5,0.2,1,0.6,1.3,1.1l0.1-1.2h1.7v10.8c0,0.7-0.1,1.4-0.3,1.9s-0.5,1-1,1.4
				c-0.4,0.4-0.9,0.7-1.5,0.9c-0.6,0.2-1.2,0.3-1.9,0.3c-0.3,0-0.6,0-1-0.1c-0.4-0.1-0.7-0.2-1.1-0.3c-0.4-0.1-0.7-0.3-1.1-0.6
				c-0.3-0.2-0.6-0.5-0.9-0.9l1-1.1c0.2,0.3,0.5,0.5,0.7,0.7s0.5,0.3,0.7,0.5c0.2,0.1,0.5,0.2,0.7,0.2c0.3,0.1,0.5,0.1,0.8,0.1
				c0.4,0,0.8-0.1,1.2-0.2c0.4-0.1,0.7-0.3,0.9-0.6s0.4-0.6,0.6-0.9c0.1-0.4,0.2-0.8,0.2-1.3v-1c-0.4,0.4-0.8,0.7-1.3,1
				c-0.5,0.2-1.1,0.3-1.8,0.3c-0.7,0-1.2-0.1-1.8-0.4c-0.5-0.3-1-0.7-1.4-1.2c-0.4-0.5-0.7-1.1-0.9-1.8c-0.2-0.7-0.3-1.4-0.3-2.2
				V125.5z M219.8,125.7c0,0.5,0.1,1.1,0.2,1.5c0.1,0.5,0.3,0.9,0.5,1.3c0.2,0.4,0.5,0.6,0.9,0.9s0.8,0.3,1.3,0.3
				c0.3,0,0.6,0,0.9-0.1c0.3-0.1,0.5-0.2,0.7-0.3c0.2-0.1,0.4-0.3,0.6-0.5c0.2-0.2,0.3-0.4,0.4-0.7v-5c-0.1-0.2-0.3-0.4-0.4-0.6
				c-0.2-0.2-0.3-0.4-0.6-0.5c-0.2-0.1-0.5-0.3-0.7-0.3c-0.3-0.1-0.6-0.1-0.9-0.1c-0.5,0-1,0.1-1.3,0.3c-0.4,0.2-0.7,0.5-0.9,0.9
				c-0.2,0.4-0.4,0.8-0.5,1.3c-0.1,0.5-0.2,1-0.2,1.5V125.7z"/>
		</g>
	</g>
</g>
</svg>
